<svg xmlns="http://www.w3.org/2000/svg" width="1024" height="1024" viewBox="0 0 1024 1024">
  <defs>
    <linearGradient id="bg" x1="0%" y1="0%" x2="100%" y2="100%">
      <stop offset="0%" stop-color="#007AFF"/>
      <stop offset="50%" stop-color="#5856D6"/>
      <stop offset="100%" stop-color="#AF52DE"/>
    </linearGradient>
    <linearGradient id="sheen" x1="0.5" y1="0" x2="0.5" y2="1">
      <stop offset="0%" stop-color="white" stop-opacity="0.14"/>
      <stop offset="60%" stop-color="white" stop-opacity="0"/>
    </linearGradient>
  </defs>

  <!-- Background -->
  <rect width="1024" height="1024" rx="220" fill="url(#bg)"/>
  <rect width="1024" height="1024" rx="220" fill="url(#sheen)"/>

  <!-- Person silhouette -->
  <circle cx="512" cy="385" r="72" fill="white"/>
  <path d="M 396 555 C 396 495 628 495 628 555 L 628 575 C 628 597 610 610 590 610 L 434 610 C 414 610 396 597 396 575 Z" fill="white"/>

  <!-- Right curved transfer arrow -->
  <path d="M 636 325 C 790 365 790 645 636 685"
        stroke="white" stroke-width="28" stroke-linecap="round" fill="none" opacity="0.92"/>
  <polyline points="662,654 636,685 674,694"
           stroke="white" stroke-width="28" stroke-linecap="round" stroke-linejoin="round" fill="none" opacity="0.92"/>

  <!-- Left curved transfer arrow -->
  <path d="M 388 685 C 234 645 234 365 388 325"
        stroke="white" stroke-width="28" stroke-linecap="round" fill="none" opacity="0.92"/>
  <polyline points="350,316 388,325 362,357"
           stroke="white" stroke-width="28" stroke-linecap="round" stroke-linejoin="round" fill="none" opacity="0.92"/>
</svg>
